<?xml version="1.0" encoding="utf-8"?>
<!-- Generator: Adobe Illustrator 19.0.0, SVG Export Plug-In . SVG Version: 6.00 Build 0)  -->
<svg version="1.1" id="Layer_1" xmlns="http://www.w3.org/2000/svg" xmlns:xlink="http://www.w3.org/1999/xlink" x="0px" y="0px"
	 viewBox="0 0 500 500" style="enable-background:new 0 0 500 500;" xml:space="preserve">
<g id="XMLID_1_">
	<path id="XMLID_8_" d="M228.6,335.7c-0.6-6.8-1.4-15.3-1.9-14.2c-0.7,1.8-0.8,19.9-0.3,52.2c0.5,29-1,53.3-1.7,54.1
		c-2.6,2.6-11-1.2-13.7-6.3c-1.6-2.9-3.2-22.8-3.8-46.7c-0.6-24.5-2.4-45.6-4.3-51.4c-1.9-5.9-2.3-11.3-1.1-13.7
		c1.2-2.2,1.4-4.6,0.6-5.5c-0.8-0.8-1.4-4.8-1.3-8.9c0.2-6.4-0.7-7.4-6.1-7.4c-6.6,0-30,13.5-30,17.4c0,1.2,2.2,2.2,4.9,2.2
		c2.7,0,4.9,1.6,4.9,3.7c0,4.4-8,4.8-14.5,0.7c-3.7-2.3-6-2.2-11.1,0.5c-7.5,4-13.1,1.6-17.5-7.6c-3.4-7.1-3.9-10.3-3.5-23.2
		c0.2-8.2,1.4-10.5,6.6-12.9l6.3-2.9l-7.5-8.5c-10.7-12.2-14.2-20.1-17.5-38.9c-3.2-18.5-1.8-60.8,2.5-75
		c3.6-11.9,32.5-42.6,52-55.2c24.6-15.9,42.1-20.8,75.2-20.8c24.6-0.1,30.6,0.8,48.6,6.9c38.9,13.2,69.6,38.5,84.1,69.1
		c6.9,14.5,7.7,18.6,7.5,37.1c-0.2,14.3-2.6,30.6-7.9,52.2c-8,32.8-9.1,42-5.4,47.8c6.5,10.2-18.7,37.3-30.4,32.8
		c-3.1-1.2-3.7-3.4-2.5-9.9c2-10.5-1.8-15.4-11.8-15.3c-13.3,0.2-19,5.1-20,17.2c-0.5,5.9-3.1,17.3-5.9,25.2
		c-3.6,10.5-5,20.6-5,37.1c0,12.5-1.2,30.9-2.7,41c-2.6,17.2-3.2,18.4-10.1,20.9c-4.1,1.4-7.8,2.6-8.3,2.6c-0.5,0-0.9-23.8-0.9-52.9
		c0-45.6,0.6-53.5,4-57.3c3.7-4.1,3.7-4.5-0.1-6c-2.3-0.9-4.8-0.9-5.7,0c-0.9,0.9-1.9,22.7-2.2,48.5c-0.8,55.7-2.3,66.2-10.1,67.3
		l-5.5,0.8v-54.9c0-46.5-0.6-55.1-3.7-56.3c-3.2-1.2-3.7,5.8-3.7,54.7v56.1h-17.1C230.7,400,231,367.8,228.6,335.7L228.6,335.7z
		 M270,280.8c0-2.1-3-8.2-6.7-13.6l-6.7-9.7l-0.8,8c-0.4,4.4,1.2,12.3,3.7,17.6c3.9,8.4,4.8,9.1,7.5,5.6
		C268.6,286.5,270,283,270,280.8L270,280.8z M243.7,276.4c2.4-6.3,4.4-14.1,4.4-17.3c0-4.9-0.6-5.3-3.7-2.8c-2,1.7-3.7,4.4-3.7,6.1
		s-2.3,6-5.2,9.6c-4.4,5.6-4.8,7.5-2.3,12.9C236.6,292.4,238,291.3,243.7,276.4L243.7,276.4z M227.1,246.6l9.6-4l-27.9-14.8
		c-47.9-25.4-68.3-35.1-70.8-33.6c-7.3,4.5,3.9,41.7,14.2,47.2c4.4,2.4,31,8.8,44.5,10.8C205.1,253.4,215.7,251.4,227.1,246.6
		L227.1,246.6z M329.8,247.5c8.1-1.9,17.4-5.5,20.8-8c7.3-5.3,14.3-22.4,14.5-35.1c0.1-8.4-0.4-9.2-6.6-9.1c-8.2,0-28.4,9.2-44,20
		c-6.4,4.4-20.2,12.6-30.8,18.1l-19.2,10.1l10.7,3.9C293.8,254.1,302.3,254.1,329.8,247.5z" fill="white"/>
</g>
</svg>
